<svg width="256" height="256" viewBox="0 0 256 256" fill="none" xmlns="http://www.w3.org/2000/svg">
<g filter="url(#filter0_i_99_50)">
<rect x="27" y="11" width="44" height="34" rx="17" fill="#2180C3"/>
<rect x="184" y="11" width="43" height="34" rx="17" fill="#2180C3"/>
<rect x="15" y="52" width="69" height="32" rx="16" fill="#2180C3"/>
<rect y="91" width="256" height="34" rx="17" fill="#25C3DF"/>
<rect y="131" width="256" height="34" rx="17" fill="#25C3DF"/>
<rect x="35" y="172" width="186" height="32" rx="16" fill="#25C3DF"/>
<rect x="76" y="211" width="101" height="34" rx="17" fill="#25C3DF"/>
<rect x="172" y="52" width="69" height="32" rx="16" fill="#2180C3"/>
<rect x="35" y="91" width="192" height="34" rx="17" fill="#2180C3"/>
<rect x="93" y="131" width="70" height="34" rx="17" fill="#2180C3"/>
<rect x="110" y="172" width="36" height="32" rx="16" fill="#2180C3"/>
<rect x="100" y="211" width="56" height="34" rx="17" fill="#44F3EA"/>
</g>
<defs>
<filter id="filter0_i_99_50" x="0" y="11" width="256" height="234" filterUnits="userSpaceOnUse" color-interpolation-filters="sRGB">
<feFlood flood-opacity="0" result="BackgroundImageFix"/>
<feBlend mode="normal" in="SourceGraphic" in2="BackgroundImageFix" result="shape"/>
<feColorMatrix in="SourceAlpha" type="matrix" values="0 0 0 0 0 0 0 0 0 0 0 0 0 0 0 0 0 0 127 0" result="hardAlpha"/>
<feOffset/>
<feGaussianBlur stdDeviation="1.75"/>
<feComposite in2="hardAlpha" operator="arithmetic" k2="-1" k3="1"/>
<feColorMatrix type="matrix" values="0 0 0 0 0 0 0 0 0 0 0 0 0 0 0 0 0 0 0.25 0"/>
<feBlend mode="plus-darker" in2="shape" result="effect1_innerShadow_99_50"/>
</filter>
</defs>
</svg>
